<?xml version="1.0" standalone="no"?>
<!DOCTYPE svg PUBLIC "-//W3C//DTD SVG 20010904//EN"
 "http://www.w3.org/TR/2001/REC-SVG-20010904/DTD/svg10.dtd">
<svg version="1.0" xmlns="http://www.w3.org/2000/svg"
 width="700.000000pt" height="700.000000pt" viewBox="0 0 700.000000 700.000000"
 preserveAspectRatio="xMidYMid meet">
<metadata>
Created by potrace 1.14, written by Peter Selinger 2001-2017
</metadata>
<g transform="translate(0.000000,700.000000) scale(0.100000,-0.100000)"
fill="#000000" stroke="none">
<path d="M6715 6985 c-32 -11 -259 -234 -1140 -1119 -605 -607 -1926 -1933
-2935 -2946 -1009 -1013 -2005 -2012 -2212 -2220 -207 -208 -384 -393 -394
-412 -11 -21 -17 -54 -17 -92 1 -48 6 -65 31 -99 16 -23 47 -50 68 -62 45 -23
123 -27 170 -7 28 12 1186 1170 4112 4110 371 373 1093 1098 1606 1612 513
514 941 951 951 970 11 20 18 56 18 85 0 135 -131 226 -258 180z"/>
<path d="M3404 6233 c-318 -49 -556 -306 -579 -626 -1 -23 -3 -44 -4 -47 0 -3
-270 -6 -598 -6 -329 -1 -622 -4 -651 -8 -188 -23 -371 -176 -440 -369 l-26
-72 -3 -455 c-1 -250 -2 -459 -2 -465 -1 -5 -22 -11 -49 -13 -278 -14 -520
-201 -605 -467 -23 -70 -29 -108 -31 -200 -8 -232 80 -417 269 -572 83 -68
254 -130 366 -134 27 -1 49 -7 50 -13 0 -6 1 -260 1 -564 l0 -554 30 29 c64
60 308 307 310 312 0 3 2 689 3 1523 l2 1517 24 48 c16 30 42 59 70 78 l44 30
1525 3 1525 2 167 167 c92 92 165 169 163 172 -3 2 -175 5 -382 5 l-377 1 -4
45 c-7 93 -33 188 -73 270 -55 110 -178 237 -284 292 -129 67 -296 94 -441 71z"/>
<path d="M5716 5123 l-136 -137 0 -1876 c0 -1797 -1 -1877 -19 -1915 -19 -43
-67 -90 -110 -108 -18 -7 -590 -11 -1898 -12 l-1872 -1 -141 -141 -140 -141
53 -21 c28 -11 72 -25 97 -30 29 -7 727 -11 1970 -11 l1925 0 78 24 c105 32
177 78 251 157 80 86 117 156 142 269 4 19 8 389 9 822 0 433 3 789 5 791 3 2
37 7 75 10 301 26 558 269 600 567 9 58 9 173 0 230 -45 310 -311 555 -620
572 l-60 4 -1 449 c-1 313 -5 465 -13 500 -12 50 -46 135 -54 135 -2 0 -66
-62 -141 -137z"/>
<path d="M2498 4005 c-2 -1 -28 -5 -59 -8 -233 -21 -373 -283 -264 -496 33
-65 122 -145 185 -166 204 -68 407 44 456 251 11 50 11 82 -2 154 -13 76 -83
171 -158 215 -36 21 -150 57 -158 50z"/>
<path d="M4403 3807 c-144 -144 -193 -200 -193 -218 0 -35 43 -118 82 -160
140 -154 377 -152 513 4 64 73 84 132 81 237 -2 65 -8 96 -26 133 -30 64 -103
137 -163 165 -97 45 -81 54 -294 -161z"/>
<path d="M2717 2112 c-92 -92 -167 -169 -167 -172 0 -4 2136 -5 2163 -1 4 0 7
78 7 171 l0 170 -918 0 -917 0 -168 -168z"/>
</g>
</svg>
